Coordinates
version=1
nRows=17
nColumns=24
inDegrees=yes

Units are S.I. units (second, meters, Newtons, ...)
Angles are in degrees.

endheader
time	pelvis_tilt	pelvis_list	pelvis_rotation	pelvis_tx	pelvis_ty	pelvis_tz	hip_flexion_r	hip_adduction_r	hip_rotation_r	knee_angle_r	ankle_angle_r	subtalar_angle_r	mtp_angle_r	hip_flexion_l	hip_adduction_l	hip_rotation_l	knee_angle_l	ankle_angle_l	subtalar_angle_l	mtp_angle_l	lumbar_extension	lumbar_bending	lumbar_rotation
      4.53000000	    -13.49360698	    -11.35073539	      0.12313295	     -0.82616811	     -0.03810743	      0.48964412	     31.37713507	     13.78501474	      2.83240128	    -19.94903296	     -5.21800523	     -3.56079071	      5.20040823	     15.25290859	    -12.44269047	      5.34920094	    -58.71885603	    -31.44121467	     12.85958824	     30.55499472	      9.92281321	     12.86156322	     -0.71085043
      4.53500000	    -13.41132763	    -11.46013455	      0.12061958	     -0.81918562	     -0.03717518	      0.49032753	     30.68712263	     13.98395740	      2.91142582	    -19.69295723	     -4.81776301	     -3.50943509	      5.21562039	     16.30660390	    -12.51734543	      5.45376112	    -60.16995714	    -31.43447119	     11.75826457	     30.22345634	      9.82986620	     12.95190577	     -0.61795939
      4.54000000	    -13.31002161	    -11.56107088	      0.13606996	     -0.81215852	     -0.03617734	      0.49099131	     29.95317222	     14.16863696	      2.97089704	    -19.39472582	     -4.44300183	     -3.50300211	      5.20843095	     17.33231890	    -12.57956732	      5.56373481	    -61.51943426	    -31.23148210	     10.69706431	     29.81226815	      9.73479520	     13.03083372	     -0.49509522
      4.54500000	    -13.20171523	    -11.65144564	      0.14500948	     -0.80518527	     -0.03512362	      0.49161763	     29.19878979	     14.34251300	      3.07273507	    -19.07190374	     -4.12109507	     -3.46227555	      5.18661976	     18.34518004	    -12.62551321	      5.66575765	    -62.77414874	    -30.86308727	      9.69012875	     29.34810456	      9.62173544	     13.10377195	     -0.35300433
      4.55000000	    -13.09317215	    -11.66934097	      0.16010973	     -0.79817872	     -0.03405217	      0.49225938	     28.43352979	     14.44879480	      3.21516764	    -18.75331545	     -3.74364753	     -3.45872146	      5.13521420	     19.33837473	    -12.59747357	      5.72168533	    -63.92786481	    -30.30754647	      8.75697739	     28.67529094	      9.52315416	     13.09233395	     -0.24314436
      4.55500000	    -12.97087397	    -11.68153079	      0.16807355	     -0.79122732	     -0.03293081	      0.49289239	     27.64228899	     14.55185747	      3.39982402	    -18.41216189	     -3.41630006	     -3.44166043	      5.05126555	     20.30580498	    -12.56739203	      5.76931012	    -64.97653402	    -29.62648684	      7.97752951	     28.01505376	      9.40061594	     13.07978085	     -0.10716159
      4.56000000	    -12.83980579	    -11.66770342	      0.17092982	     -0.78428459	     -0.03177018	      0.49351452	     26.82882471	     14.63052556	      3.61536962	    -18.05384872	     -3.11672486	     -3.43490288	      4.94614546	     21.24011298	    -12.51351336	      5.79404169	    -65.90415213	    -28.86029313	      7.30463131	     27.41094799	      9.26834847	     13.04126442	      0.05620377
      4.56500000	    -12.70346647	    -11.61488385	      0.16469214	     -0.77737426	     -0.03057234	      0.49413664	     25.99717500	     14.67283724	      3.87917292	    -17.67913551	     -2.83734453	     -3.43226300	      4.81535254	     22.14227559	    -12.42158940	      5.79459600	    -66.71293867	    -28.01030345	      6.76897709	     26.83489235	      9.12514018	     12.96419211	      0.23254281
      4.57000000	    -12.56270076	    -11.53652548	      0.15007602	     -0.77046644	     -0.02935743	      0.49478207	     25.14975103	     14.69300752	      4.16656238	    -17.28908477	     -2.57790583	     -3.44951833	      4.67775020	     23.01066993	    -12.31241716	      5.76892959	    -67.39610457	    -27.12320506	      6.33575381	     26.39906857	      8.97855759	     12.86017757	      0.43435251
      4.57500000	    -12.46953846	    -11.42317833	      0.15404571	     -0.76356798	     -0.02817213	      0.49539103	     24.34797906	     14.65574193	      4.42487888	    -16.87768561	     -2.33554120	     -3.43870859	      4.66377662	     23.90399980	    -12.15328853	      5.76882023	    -67.91174525	    -26.35241377	      5.92994128	     26.54023110	      8.89278801	     12.71258124	      0.58761797
      4.58000000	    -12.26686962	    -11.28202610	      0.10662828	     -0.75675378	     -0.02688739	      0.49609707	     23.41874059	     14.63323200	      4.81374849	    -16.47043929	     -2.13409432	     -3.55593791	      4.41004656	     24.65262394	    -12.00870836	      5.63897835	    -68.40810442	    -25.25651939	      5.72933122	     25.84965738	      8.65408777	     12.54825651	      0.86558331
      4.58500000	    -12.16997683	    -11.10337283	      0.06777962	     -0.74993826	     -0.02570662	      0.49675780	     22.59794827	     14.54321389	      5.18604892	    -16.04410841	     -1.90053490	     -3.57035229	      4.33309782	     25.49008224	    -11.80433537	      5.54881095	    -68.73515689	    -24.36966784	      5.51843288	     25.87055090	      8.54420365	     12.34178599	      1.11474832
      4.59000000	    -12.02124595	    -10.89228562	     -0.00514220	     -0.74308524	     -0.02445433	      0.49750976	     21.71102976	     14.44114116	      5.55104209	    -15.60677490	     -1.73924324	     -3.68619778	      4.15903661	     26.21192893	    -11.60369255	      5.36763107	    -68.94912880	    -23.31570492	      5.42303607	     25.76050289	      8.37600055	     12.10120103	      1.40327291
      4.59500000	    -11.89618609	    -10.66524083	     -0.06055417	     -0.73632701	     -0.02326216	      0.49822459	     20.85790945	     14.30551042	      5.93079182	    -15.16942631	     -1.56836226	     -3.77927525	      4.01136666	     26.95701258	    -11.37218460	      5.19822629	    -69.07479872	    -22.29225724	      5.34945896	     25.73005661	      8.22491335	     11.84084433	      1.66726309
      4.60000000	    -11.74662897	    -10.44729893	     -0.13290581	     -0.72958873	     -0.02209652	      0.49898504	     19.97363440	     14.18532890	      6.33817268	    -14.72223398	     -1.40867325	     -3.90792491	      3.82302140	     27.64949514	    -11.17371869	      4.98778670	    -69.11564701	    -21.20560133	      5.33827153	     25.66501049	      8.04288348	     11.58993132	      1.94271499
      4.60500000	    -11.65822791	    -10.14812530	     -0.20376101	     -0.72290976	     -0.02095531	      0.49971432	     19.17082378	     13.96541747	      6.71901958	    -14.29029760	     -1.27013284	     -4.00707898	      3.68751682	     28.36732043	    -10.86946593	      4.76519048	    -69.01966074	    -20.18613981	      5.31493889	     25.74107650	      7.92126264	     11.25531877	      2.23150436
      4.61000000	    -11.53986737	     -9.85270018	     -0.29267974	     -0.71624773	     -0.01984220	      0.50050492	     18.33191008	     13.75685209	      7.13833597	    -13.85125091	     -1.13838384	     -4.14899546	      3.52716115	     29.02064001	    -10.59236860	      4.50505217	    -68.83479726	    -19.12673789	      5.34745904	     25.79778741	      7.76437999	     10.92211781	      2.54646117
